<?xml version='1.0' encoding='UTF-8'?>
<svg xmlns="http://www.w3.org/2000/svg" width="121.885" height="121.885" viewBox="0 0 121.885 121.885" version="1.1" id="svg1"><g id="layer17" style="" transform="translate(-22.834167,-26.359881)"><ellipse style="fill:#000000;fill-opacity:1" id="path102" cx="83.774167" cy="87.299881" rx="60.94" ry="60.94" /></g><g id="layer8" style="" transform="translate(-6.5,-3.75) scale(1.05) translate(-22.834167,-26.359881)"><g id="layer10" style=""><path style="fill:#000000;fill-opacity:1;stroke:#f9f9f9;stroke-width:4;stroke-linejoin:round" d="m 111.87599,89.179113 c 0.42711,-0.598625 0.89237,-4.697614 3.14047,-6.940112 2.59354,-2.58707 7.37108,-8.052317 7.37108,-8.052317 0,0 9.50901,-5.492274 12.86995,-8.689269 3.36094,-3.196994 8.27406,-9.528722 8.87018,-12.376832 0.59611,-2.848113 1.3247,-4.967637 -1.05977,-7.285866 -2.38446,-2.318231 -10.03151,-8.646996 -20.47531,-10.989529 -10.44379,-2.342533 -20.39178,-1.865487 -30.737965,2.331553 -10.346189,4.197041 -15.094136,8.085493 -18.51033,11.404083 -3.416194,3.318589 -5.215609,5.785476 -5.215609,5.785476 0,0 -10.330422,-0.05509 -19.798163,5.020399 -9.467739,5.075491 -13.680547,9.034804 -11.435619,10.401282 2.244929,1.366477 5.702042,-0.04092 9.508658,3.960909 3.806619,4.001828 3.472883,7.556546 3.472883,7.556546 0,0 -5.830063,1.57295 -11.003157,5.672383 -5.173096,4.099435 -9.599125,10.019596 -9.306308,11.776496 0.292817,1.756895 0.320456,2.263325 3.033279,2.853075 5.266973,1.145 12.981541,2.24493 12.981541,2.24493 0,0 1.935914,11.35837 4.571264,16.92189 5.382104,11.36224 13.956578,21.95692 29.069847,21.61529 3.645072,-0.0824 10.499476,-0.18142 17.276597,-6.19692 0,0 -10.098232,-4.26294 -12.17782,-9.25394 -2.079585,-4.99101 -2.286818,-7.79045 -0.900428,-13.47465 1.38639,-5.6842 8.078139,-11.83677 9.603168,-12.80724 1.525032,-0.970474 5.132037,-0.836617 8.320742,-0.55934 3.18869,0.27728 7.7144,0.17827 10.05773,-0.332215 2.4735,-0.538842 3.61272,-1.652998 4.41107,-3.566395 0.80621,-1.932233 -1.93798,-5.366317 -3.93798,-7.019687 z" id="path29" /></g><g id="layer2" style=""><path style="fill:#f9f9f9" d="m 123.86882,70.626314 c 0,0 3.64504,-1.482336 12.41517,-10.115751 2.20884,-2.174407 4.96318,-8.117047 5.1785,-9.767804 0.21532,-1.650754 1.3609,-4.091143 -5.73497,-7.563593 -7.09588,-3.47245 -12.50142,-5.295086 -19.85336,-6.039046 -11.06103,-1.119292 -21.385252,1.621755 -28.987413,5.963558 -7.443414,4.251138 -13.800373,9.09772 -20.759213,16.909322 -6.43037,7.218372 -11.457448,16.783604 -12.73118,20.450151 -2.582169,7.432999 -6.594847,19.013572 -3.242361,29.657569 4.449042,14.12551 8.342054,18.70403 12.46062,22.58488 3.935089,3.70796 11.223243,6.47588 16.198805,7.16485 6.508511,0.90123 14.148544,-2.49543 13.550924,-3.09305 -1.401368,-0.24045 -9.420019,-4.07624 -11.214558,-9.83484 -1.73018,-5.55208 -1.401818,-14.0182 1.869094,-19.1582 3.270911,-5.14001 8.596559,-9.731692 12.646261,-10.354722 4.049702,-0.62303 7.576661,0.883382 11.496191,1.009257 3.42844,0.110104 4.0497,-0.467273 4.0497,-0.467273 -0.1001,0.07507 -7.27979,-1.758381 -12.902311,-5.295765 -4.26178,-2.68128 -7.680288,-5.497273 -9.143944,-6.833859 -0.354629,0.567599 -1.148338,1.807854 -1.360785,1.694317 -0.475952,-0.25436 0.05309,-2.132334 0.200622,-2.577274 0.147533,-0.44494 2.33965,-6.148769 10.077942,-13.084313 7.200306,-6.45337 14.627286,-6.588415 18.424236,-5.833446 5.4537,1.084388 7.36203,4.585032 7.36203,4.585032 z" id="path1" /></g><g id="layer3" style=""><path style="fill:#7888a3;fill-opacity:1" d="m 141.51047,49.846131 c 0,0 -2.99223,-1.605584 -8.61178,-0.656828 -5.61955,0.948753 -21.96732,3.430113 -31.23593,7.881963 -9.26861,4.451853 -16.785671,9.487552 -20.653673,14.158347 -3.868002,4.670793 -9.414568,13.063628 -12.041891,18.318271 -6.181972,11.581646 -8.773678,23.235126 -2.846265,35.614806 4.743775,8.97668 15.472007,14.59623 15.472007,14.59623 0,0 -6.057437,0.58385 -11.312081,-1.82453 -3.424146,-1.5694 -7.44966,-4.51227 -10.977694,-8.64448 -1.886033,-2.20902 -4.115041,-6.03448 -4.903543,-7.98605 -4.31295,-10.6747 -4.790859,-17.13343 -4.698891,-20.81205 0,0 -6.107149,0.19985 -10.559002,-0.675908 -4.45185,-0.875774 -5.497411,-1.218355 -5.497411,-1.218355 0,0 8.684757,-8.611778 14.231326,-11.385061 5.546566,-2.773283 15.909893,-5.911474 15.76393,-5.619548 -0.145962,0.291922 -3.065208,-0.364906 -5.619549,0.145961 -2.049281,0.409856 -4.086946,0.875772 -4.086946,0.875772 0,0 1.075859,-1.752087 5.838492,-9.925435 4.745378,-8.143737 11.907367,-15.36297 20.72665,-22.259254 8.799168,-6.880556 20.653671,-12.406796 27.513901,-12.625742 6.86023,-0.218942 16.6397,-0.291925 24.0108,3.430114 7.3711,3.722039 9.48755,5.546569 9.56053,6.641288 0.073,1.094716 -0.073,1.970489 -0.073,1.970489 z" id="path4" /><path style="fill:#7888a3;fill-opacity:1" d="m 65.397359,60.281419 c 0,0 -4.178488,4.675914 -5.912017,7.545201 -1.733529,2.86929 -7.421001,10.048353 -7.421001,10.048353 0,0 -2.062275,-5.035184 -4.131123,-7.025119 -2.60651,-2.507089 -5.920608,-2.456356 -5.887327,-2.31706 2.186155,-1.811838 8.271362,-5.373445 11.704742,-6.438661 3.983036,-1.235748 8.787023,-1.32043 11.646726,-1.812714 z" id="path5" /></g><g id="layer4" style="fill-opacity:1"><path style="fill:#586b8a;fill-opacity:1" d="m 65.488913,90.324388 c 0,0 -2.344755,8.611293 -3.156258,12.912272 -0.811504,4.30097 0.072,13.81123 2.100757,18.2745 2.028762,4.46327 3.885545,8.09247 7.212709,11.01388 3.327167,2.92142 10.623445,7.53714 10.623445,7.53714 0,0 -6.150498,0.003 -8.90961,-0.80811 -2.759114,-0.8115 -8.683093,-5.76167 -12.497162,-11.68565 -3.814067,-5.92398 -7.141234,-13.30866 -7.384685,-15.82433 -0.243451,-2.51566 -2.596811,-11.1176 -2.596811,-11.1176 -3.327166,0.0428 -6.654333,0.10779 -9.981499,-0.4869 0,0 2.177039,-3.886054 10.530758,-6.909304 8.353721,-3.023251 14.058356,-2.905898 14.058356,-2.905898 z" id="path7" /></g><g id="layer5" style=""><path style="fill:#f9f9f9;fill-opacity:1" d="m 104.50287,93.298681 c 1.64549,0.899455 2.49558,1.215225 4.52935,1.877298 -0.0535,-1.379984 -0.48288,-2.801725 -1.25153,-4.261167 -1.28637,0.711582 -2.53757,1.438235 -3.27782,2.383869 z" id="path9" transform="translate(106.8,93.1) scale(1.4) translate(-106.8,-93.1)" /><path style="fill:#f9f9f9;fill-opacity:1" d="m 107.71579,68.641916 c -2.29731,0.715871 -3.67288,1.577282 -4.96774,2.451434 1.06162,0.727404 1.52285,1.521517 2.13161,2.299239 1.18007,-1.275043 2.06742,-2.938217 2.83613,-4.750673 z" id="path13" transform="translate(105.2,71.0) scale(1.5) translate(-105.2,-71.0)" /><path style="fill:#f9f9f9;fill-opacity:1" d="m 108.90255,68.242777 c 2.06258,-0.638072 4.14935,-1.0234 6.77943,-0.535942 -0.77069,1.548698 -2.21191,3.273988 -3.37393,4.455366 -0.97405,-1.363634 -2.26167,-2.691612 -3.4055,-3.919424 z" id="path14" transform="translate(112.3,69.9) scale(1.5) translate(-112.3,-69.9)" /></g><g id="layer6" style=""><path style="fill:#fc609a;fill-opacity:1" d="m 96.074115,82.131156 c 0.851177,2.007722 1.137089,4.382447 0.814188,7.022365 1.962351,-1.369055 3.550107,-1.853223 4.885127,-1.967617 1.96163,1.503985 1.69201,2.974046 2.23901,4.478031 1.36737,-0.969432 2.91937,-1.769874 4.37626,-1.933697 1.33324,1.038335 1.39069,2.643689 2.00154,4.00309 1.07956,-0.921982 0.14797,-3.549795 -0.23747,-5.936785 0,0 -0.47494,-3.460297 -1.96762,-4.715501 -1.49268,-1.255208 -2.47648,-1.390904 -2.47648,-1.390904 1.31014,2.020235 1.82013,4.097625 1.86584,6.208177 0,0 -2.34079,-4.240557 -5.46184,-5.224368 -3.121049,-0.983808 -6.038555,-0.542791 -6.038555,-0.542791 z" id="path18" transform="translate(102.5,86.2) scale(1.25) translate(-103.5,-87.7)" /></g><g id="layer7" style=""><g id="g106"><ellipse style="fill:#1a1a1a;fill-opacity:1" id="path25" cx="103.05526" cy="48.199173" rx="8.8277308" ry="8.71840914" /><circle id="glint" cx="100.6" cy="45.7" r="2.0" style="fill:#f9f9f9" /></g></g></g>
  </svg>